<svg width="254" height="23" viewBox="0 0 254 23" fill="none" xmlns="http://www.w3.org/2000/svg">
<path d="M16.28 18L16.256 7.92L11.312 16.224H9.56L4.64 8.136V18H0.992V1.2H4.208L10.496 11.64L16.688 1.2H19.88L19.928 18H16.28ZM35.9859 5.088L30.1539 18.792C29.5619 20.28 28.8259 21.328 27.9459 21.936C27.0819 22.544 26.0339 22.848 24.8019 22.848C24.1299 22.848 23.4659 22.744 22.8099 22.536C22.1539 22.328 21.6179 22.04 21.2019 21.672L22.5699 19.008C22.8579 19.264 23.1859 19.464 23.5539 19.608C23.9379 19.752 24.3139 19.824 24.6819 19.824C25.1939 19.824 25.6099 19.696 25.9299 19.44C26.2499 19.2 26.5379 18.792 26.7939 18.216L26.8419 18.096L21.2499 5.088H25.1139L28.7379 13.848L32.3859 5.088H35.9859Z" fill="#FF9877"/>
<path d="M42.8176 18.288C41.4896 18.288 40.2016 18.112 38.9536 17.76C37.7216 17.392 36.7296 16.92 35.9776 16.344L37.2976 13.416C38.0176 13.944 38.8736 14.368 39.8656 14.688C40.8576 15.008 41.8496 15.168 42.8416 15.168C43.9456 15.168 44.7616 15.008 45.2896 14.688C45.8176 14.352 46.0816 13.912 46.0816 13.368C46.0816 12.968 45.9216 12.64 45.6016 12.384C45.2976 12.112 44.8976 11.896 44.4016 11.736C43.9216 11.576 43.2656 11.4 42.4336 11.208C41.1536 10.904 40.1056 10.6 39.2896 10.296C38.4736 9.992 37.7696 9.504 37.1776 8.832C36.6016 8.16 36.3136 7.264 36.3136 6.144C36.3136 5.168 36.5776 4.288 37.1056 3.504C37.6336 2.704 38.4256 2.072 39.4816 1.608C40.5536 1.144 41.8576 0.912 43.3936 0.912C44.4656 0.912 45.5136 1.04 46.5376 1.296C47.5616 1.552 48.4576 1.92 49.2256 2.4L48.0256 5.352C46.4736 4.472 44.9216 4.032 43.3696 4.032C42.2816 4.032 41.4736 4.208 40.9456 4.56C40.4336 4.912 40.1776 5.376 40.1776 5.952C40.1776 6.528 40.4736 6.96 41.0656 7.248C41.6736 7.52 42.5936 7.792 43.8256 8.064C45.1056 8.368 46.1536 8.672 46.9696 8.976C47.7856 9.28 48.4816 9.76 49.0576 10.416C49.6496 11.072 49.9456 11.96 49.9456 13.08C49.9456 14.04 49.6736 14.92 49.1296 15.72C48.6016 16.504 47.8016 17.128 46.7296 17.592C45.6576 18.056 44.3536 18.288 42.8176 18.288ZM64.8663 5.088V18H61.3143V16.464C60.8183 17.024 60.2263 17.456 59.5383 17.76C58.8503 18.048 58.1063 18.192 57.3063 18.192C55.6103 18.192 54.2663 17.704 53.2743 16.728C52.2823 15.752 51.7863 14.304 51.7863 12.384V5.088H55.5303V11.832C55.5303 13.912 56.4023 14.952 58.1463 14.952C59.0423 14.952 59.7623 14.664 60.3063 14.088C60.8503 13.496 61.1223 12.624 61.1223 11.472V5.088H64.8663ZM75.4869 4.896C76.6869 4.896 77.7749 5.176 78.7509 5.736C79.7429 6.28 80.5189 7.056 81.0789 8.064C81.6389 9.056 81.9189 10.216 81.9189 11.544C81.9189 12.872 81.6389 14.04 81.0789 15.048C80.5189 16.04 79.7429 16.816 78.7509 17.376C77.7749 17.92 76.6869 18.192 75.4869 18.192C73.8389 18.192 72.5429 17.672 71.5989 16.632V22.656H67.8549V5.088H71.4309V6.576C72.3589 5.456 73.7109 4.896 75.4869 4.896ZM74.8389 15.12C75.7989 15.12 76.5829 14.8 77.1909 14.16C77.8149 13.504 78.1269 12.632 78.1269 11.544C78.1269 10.456 77.8149 9.592 77.1909 8.952C76.5829 8.296 75.7989 7.968 74.8389 7.968C73.8789 7.968 73.0869 8.296 72.4629 8.952C71.8549 9.592 71.5509 10.456 71.5509 11.544C71.5509 12.632 71.8549 13.504 72.4629 14.16C73.0869 14.8 73.8789 15.12 74.8389 15.12ZM96.5932 11.592C96.5932 11.64 96.5692 11.976 96.5212 12.6H86.7532C86.9292 13.4 87.3452 14.032 88.0012 14.496C88.6572 14.96 89.4732 15.192 90.4492 15.192C91.1212 15.192 91.7132 15.096 92.2252 14.904C92.7532 14.696 93.2412 14.376 93.6892 13.944L95.6812 16.104C94.4652 17.496 92.6892 18.192 90.3532 18.192C88.8972 18.192 87.6092 17.912 86.4892 17.352C85.3692 16.776 84.5052 15.984 83.8972 14.976C83.2892 13.968 82.9852 12.824 82.9852 11.544C82.9852 10.28 83.2812 9.144 83.8732 8.136C84.4812 7.112 85.3052 6.32 86.3452 5.76C87.4012 5.184 88.5772 4.896 89.8732 4.896C91.1372 4.896 92.2812 5.168 93.3052 5.712C94.3292 6.256 95.1292 7.04 95.7052 8.064C96.2972 9.072 96.5932 10.248 96.5932 11.592ZM89.8972 7.728C89.0492 7.728 88.3372 7.968 87.7612 8.448C87.1852 8.928 86.8332 9.584 86.7052 10.416H93.0652C92.9372 9.6 92.5852 8.952 92.0092 8.472C91.4332 7.976 90.7292 7.728 89.8972 7.728ZM102.182 6.792C102.63 6.168 103.23 5.696 103.982 5.376C104.75 5.056 105.63 4.896 106.622 4.896V8.352C106.206 8.32 105.926 8.304 105.782 8.304C104.71 8.304 103.87 8.608 103.262 9.216C102.654 9.808 102.35 10.704 102.35 11.904V18H98.6058V5.088H102.182V6.792ZM124.904 4.896C126.52 4.896 127.8 5.376 128.744 6.336C129.704 7.28 130.184 8.704 130.184 10.608V18H126.44V11.184C126.44 10.16 126.224 9.4 125.792 8.904C125.376 8.392 124.776 8.136 123.992 8.136C123.112 8.136 122.416 8.424 121.904 9C121.392 9.56 121.136 10.4 121.136 11.52V18H117.392V11.184C117.392 9.152 116.576 8.136 114.944 8.136C114.08 8.136 113.392 8.424 112.88 9C112.368 9.56 112.112 10.4 112.112 11.52V18H108.368V5.088H111.944V6.576C112.424 6.032 113.008 5.616 113.696 5.328C114.4 5.04 115.168 4.896 116 4.896C116.912 4.896 117.736 5.08 118.472 5.448C119.208 5.8 119.8 6.32 120.248 7.008C120.776 6.336 121.44 5.816 122.24 5.448C123.056 5.08 123.944 4.896 124.904 4.896ZM138.268 4.896C140.268 4.896 141.804 5.376 142.876 6.336C143.948 7.28 144.484 8.712 144.484 10.632V18H140.98V16.392C140.276 17.592 138.964 18.192 137.044 18.192C136.052 18.192 135.188 18.024 134.452 17.688C133.732 17.352 133.18 16.888 132.796 16.296C132.412 15.704 132.22 15.032 132.22 14.28C132.22 13.08 132.668 12.136 133.564 11.448C134.476 10.76 135.876 10.416 137.764 10.416H140.74C140.74 9.6 140.492 8.976 139.996 8.544C139.5 8.096 138.756 7.872 137.764 7.872C137.076 7.872 136.396 7.984 135.724 8.208C135.068 8.416 134.508 8.704 134.044 9.072L132.7 6.456C133.404 5.96 134.244 5.576 135.22 5.304C136.212 5.032 137.228 4.896 138.268 4.896ZM137.98 15.672C138.62 15.672 139.188 15.528 139.684 15.24C140.18 14.936 140.532 14.496 140.74 13.92V12.6H138.172C136.636 12.6 135.868 13.104 135.868 14.112C135.868 14.592 136.052 14.976 136.42 15.264C136.804 15.536 137.324 15.672 137.98 15.672ZM150.968 6.792C151.416 6.168 152.016 5.696 152.768 5.376C153.536 5.056 154.416 4.896 155.408 4.896V8.352C154.992 8.32 154.712 8.304 154.568 8.304C153.496 8.304 152.656 8.608 152.048 9.216C151.44 9.808 151.136 10.704 151.136 11.904V18H147.392V5.088H150.968V6.792ZM162.699 12.936L160.899 14.712V18H157.155V0.191999H160.899V10.272L166.371 5.088H170.835L165.459 10.56L171.315 18H166.779L162.699 12.936ZM184.604 11.592C184.604 11.64 184.58 11.976 184.532 12.6H174.764C174.94 13.4 175.356 14.032 176.012 14.496C176.668 14.96 177.484 15.192 178.46 15.192C179.132 15.192 179.724 15.096 180.236 14.904C180.764 14.696 181.252 14.376 181.7 13.944L183.692 16.104C182.476 17.496 180.7 18.192 178.364 18.192C176.908 18.192 175.62 17.912 174.5 17.352C173.38 16.776 172.516 15.984 171.908 14.976C171.3 13.968 170.996 12.824 170.996 11.544C170.996 10.28 171.292 9.144 171.884 8.136C172.492 7.112 173.316 6.32 174.356 5.76C175.412 5.184 176.588 4.896 177.884 4.896C179.148 4.896 180.292 5.168 181.316 5.712C182.34 6.256 183.14 7.04 183.716 8.064C184.308 9.072 184.604 10.248 184.604 11.592ZM177.908 7.728C177.06 7.728 176.348 7.968 175.772 8.448C175.196 8.928 174.844 9.584 174.716 10.416H181.076C180.948 9.6 180.596 8.952 180.02 8.472C179.444 7.976 178.74 7.728 177.908 7.728ZM194.944 17.376C194.576 17.648 194.12 17.856 193.576 18C193.048 18.128 192.488 18.192 191.896 18.192C190.36 18.192 189.168 17.8 188.32 17.016C187.488 16.232 187.072 15.08 187.072 13.56V8.256H185.08V5.376H187.072V2.232H190.816V5.376H194.032V8.256H190.816V13.512C190.816 14.056 190.952 14.48 191.224 14.784C191.512 15.072 191.912 15.216 192.424 15.216C193.016 15.216 193.52 15.056 193.936 14.736L194.944 17.376ZM198.216 18.192C197.56 18.192 197.008 17.968 196.56 17.52C196.112 17.072 195.888 16.512 195.888 15.84C195.888 15.152 196.112 14.6 196.56 14.184C197.008 13.752 197.56 13.536 198.216 13.536C198.872 13.536 199.424 13.752 199.872 14.184C200.32 14.6 200.544 15.152 200.544 15.84C200.544 16.512 200.32 17.072 199.872 17.52C199.424 17.968 198.872 18.192 198.216 18.192ZM208.678 18.192C207.302 18.192 206.062 17.912 204.958 17.352C203.87 16.776 203.014 15.984 202.39 14.976C201.782 13.968 201.478 12.824 201.478 11.544C201.478 10.264 201.782 9.12 202.39 8.112C203.014 7.104 203.87 6.32 204.958 5.76C206.062 5.184 207.302 4.896 208.678 4.896C210.038 4.896 211.222 5.184 212.23 5.76C213.254 6.32 213.998 7.128 214.462 8.184L211.558 9.744C210.886 8.56 209.918 7.968 208.654 7.968C207.678 7.968 206.87 8.288 206.23 8.928C205.59 9.568 205.27 10.44 205.27 11.544C205.27 12.648 205.59 13.52 206.23 14.16C206.87 14.8 207.678 15.12 208.654 15.12C209.934 15.12 210.902 14.528 211.558 13.344L214.462 14.928C213.998 15.952 213.254 16.752 212.23 17.328C211.222 17.904 210.038 18.192 208.678 18.192ZM222.117 18.192C220.757 18.192 219.533 17.912 218.445 17.352C217.373 16.776 216.533 15.984 215.925 14.976C215.317 13.968 215.013 12.824 215.013 11.544C215.013 10.264 215.317 9.12 215.925 8.112C216.533 7.104 217.373 6.32 218.445 5.76C219.533 5.184 220.757 4.896 222.117 4.896C223.477 4.896 224.693 5.184 225.765 5.76C226.837 6.32 227.677 7.104 228.285 8.112C228.893 9.12 229.197 10.264 229.197 11.544C229.197 12.824 228.893 13.968 228.285 14.976C227.677 15.984 226.837 16.776 225.765 17.352C224.693 17.912 223.477 18.192 222.117 18.192ZM222.117 15.12C223.077 15.12 223.861 14.8 224.469 14.16C225.093 13.504 225.405 12.632 225.405 11.544C225.405 10.456 225.093 9.592 224.469 8.952C223.861 8.296 223.077 7.968 222.117 7.968C221.157 7.968 220.365 8.296 219.741 8.952C219.117 9.592 218.805 10.456 218.805 11.544C218.805 12.632 219.117 13.504 219.741 14.16C220.365 14.8 221.157 15.12 222.117 15.12ZM247.756 4.896C249.372 4.896 250.652 5.376 251.596 6.336C252.556 7.28 253.036 8.704 253.036 10.608V18H249.292V11.184C249.292 10.16 249.076 9.4 248.644 8.904C248.228 8.392 247.628 8.136 246.844 8.136C245.964 8.136 245.268 8.424 244.756 9C244.244 9.56 243.988 10.4 243.988 11.52V18H240.244V11.184C240.244 9.152 239.428 8.136 237.796 8.136C236.932 8.136 236.244 8.424 235.732 9C235.22 9.56 234.964 10.4 234.964 11.52V18H231.22V5.088H234.796V6.576C235.276 6.032 235.86 5.616 236.548 5.328C237.252 5.04 238.02 4.896 238.852 4.896C239.764 4.896 240.588 5.08 241.324 5.448C242.06 5.8 242.652 6.32 243.1 7.008C243.628 6.336 244.292 5.816 245.092 5.448C245.908 5.08 246.796 4.896 247.756 4.896Z" fill="#8830A7"/>
</svg>
