<svg width="18" height="16" viewBox="0 0 18 16" fill="none" xmlns="http://www.w3.org/2000/svg">
<path d="M17.8826 7.98039L14.4166 3.27451C14.1893 2.96078 13.7537 2.96078 13.5264 3.27451L10.0604 7.98039C9.77629 8.37255 10.0414 8.92157 10.5149 8.92157H11.9165C11.6135 11.9412 9.15127 14.3137 6.15877 14.3137C6.13983 14.3137 6.13983 14.3137 6.12089 14.3137C5.49587 14.3137 5.32541 15.1961 5.91255 15.4314C6.78378 15.8039 7.71184 16 8.71565 16C12.6173 16 15.8181 12.8824 16.1022 8.92157H17.447C17.9015 8.92157 18.1667 8.37255 17.8826 7.98039Z" fill="#40CC9A"/>
<path d="M7.50353 7.07843H6.10197C6.38607 4.05882 8.84826 1.68627 11.8408 1.68627C11.8597 1.68627 11.8597 1.68627 11.8786 1.68627C12.5037 1.68627 12.6741 0.803922 12.087 0.568628C11.2158 0.196079 10.2877 0 9.28388 0C5.38226 0 2.18141 3.11765 1.89731 7.07843H0.571517C0.0980189 7.07843 -0.16714 7.62745 0.116959 8.01961L3.58296 12.7255C3.81024 13.0392 4.24586 13.0392 4.47314 12.7255L7.93915 8.01961C8.24219 7.62745 7.97703 7.07843 7.50353 7.07843Z" fill="#40CC9A"/>
</svg>
